<?xml version="1.0" standalone="no"?>
<!DOCTYPE svg PUBLIC "-//W3C//DTD SVG 1.1//EN" "http://www.w3.org/Graphics/SVG/1.1/DTD/svg11.dtd" >
<svg xmlns="http://www.w3.org/2000/svg" xmlns:xlink="http://www.w3.org/1999/xlink" version="1.1">
<metadata></metadata>
<defs>
<font id="plumbcondensedregular" horiz-adv-x="741" >
<font-face units-per-em="2048" ascent="1638" descent="-410" />
<missing-glyph horiz-adv-x="354" />
<glyph horiz-adv-x="0" />
<glyph horiz-adv-x="682" />
<glyph unicode=" "  horiz-adv-x="354" />
<glyph unicode="&#x09;" horiz-adv-x="354" />
<glyph unicode="&#xa0;" horiz-adv-x="354" />
<glyph unicode="!" horiz-adv-x="462" d="M147 94q0 43 32 75t75 32q44 0 75 -31.5t31 -73.5q0 -46 -31 -77t-75 -31q-43 0 -75 31t-32 75zM172 1458h164l-23 -1055h-118z" />
<glyph unicode="&#x22;" horiz-adv-x="634" d="M109 1104v354h131v-354h-131zM395 1104v354h133v-354h-133z" />
<glyph unicode="#" horiz-adv-x="888" d="M63 465v129h150l33 295h-140v129h154l47 440h123l-49 -440h192l48 440h122l-49 -440h131v-129h-145l-31 -295h131v-129h-145l-51 -465h-123l51 465h-190l-52 -465h-123l52 465h-136zM336 594h190l33 295h-192z" />
<glyph unicode="$" horiz-adv-x="819" d="M61 334h146q7 -103 46.5 -152t113.5 -55v565l-13 4q-81 27 -122.5 53.5t-77.5 71.5q-70 90 -70 279q0 330 268 366v185h121v-183q121 -14 186.5 -91t75.5 -236h-147q-5 90 -35 136t-94 56v-510l10 -4q118 -49 152 -71q26 -18 47 -41q44 -52 63 -127t19 -189 q0 -189 -70 -284.5t-207 -114.5v-225h-121v223q-135 12 -210 100t-81 244zM229 1104q0 -130 41 -182q31 -42 97 -66v477q-71 -11 -104.5 -66t-33.5 -163zM459 129q74 15 107.5 75t33.5 181q0 81 -10 128t-37 81q-30 38 -94 65v-530z" />
<glyph unicode="%" horiz-adv-x="1165" d="M70 956v261q0 125 53.5 190.5t152.5 65.5q101 0 155 -65.5t54 -190.5v-261q0 -125 -54 -189.5t-155 -64.5q-99 0 -152.5 64.5t-53.5 189.5zM180 958q0 -79 22 -114t74 -35q53 0 76 35t23 114v256q0 79 -23 115.5t-76 36.5q-52 0 -74 -36t-22 -116v-256zM287 0l473 1458 h117l-476 -1458h-114zM680 242v258q0 126 54.5 191t154.5 65q99 0 153 -65t54 -191v-258q0 -125 -54 -190.5t-153 -65.5t-154 65.5t-55 190.5zM791 242q0 -79 22.5 -114.5t75.5 -35.5q50 0 72 36t22 114v258q0 79 -21 114t-73 35q-53 0 -75.5 -35t-22.5 -114v-258z" />
<glyph unicode="&#x26;" horiz-adv-x="1038" d="M76 395q0 64 15 120.5t35 95t57 81t62.5 65.5t71.5 60l-16 29q-30 54 -44 81.5t-33 72.5t-26.5 87t-7.5 91q0 135 74.5 213.5t200.5 78.5q121 0 194.5 -76.5t73.5 -211.5q0 -161 -172 -312l-76 -65l248 -447q43 139 43 361h135q-3 -327 -98 -504l119 -215h-158l-51 92 q-113 -104 -285 -104q-163 0 -262.5 107t-99.5 300zM217 403q0 -132 59.5 -207t167.5 -75q140 0 213 90l-278 498q-37 -32 -60 -55.5t-49.5 -61.5t-39.5 -85t-13 -104zM330 1182q0 -64 20 -118t68 -138l8 -15l59 54q56 51 84.5 100t28.5 115q0 163 -135 163 q-133 0 -133 -161z" />
<glyph unicode="'" horiz-adv-x="348" d="M109 1104v354h131v-354h-131z" />
<glyph unicode="(" horiz-adv-x="538" d="M158 195v1069q0 68 7 115.5t32 93.5q24 46 57.5 84t89.5 90l96 -103q-81 -74 -112 -131q-27 -55 -27 -162v-1044q0 -111 27 -164q31 -55 112 -129l-96 -102q-114 106 -147 172q-25 47 -32 95t-7 116z" />
<glyph unicode=")" horiz-adv-x="538" d="M98 -86q83 76 113 129q27 46 27 164v1044q0 107 -27 162q-20 36 -44.5 63t-68.5 68l97 103q56 -52 89.5 -90t57.5 -84q25 -46 32 -93.5t7 -115.5v-1069q0 -45 -2 -73t-11 -66.5t-26 -71.5q-38 -74 -147 -172z" />
<glyph unicode="*" horiz-adv-x="733" d="M78 1010l207 118l-207 117l69 98l172 -129l-12 252h119q-10 -252 -10 -254l174 131l67 -98q-138 -78 -208 -117l208 -118l-67 -99l-176 131q0 1 3 -62.5t6 -127.5l3 -64h-119l12 254l-172 -131z" />
<glyph unicode="+" horiz-adv-x="735" d="M61 483v129h238v260h135v-260h236v-129h-236v-262h-135v262h-238z" />
<glyph unicode="," horiz-adv-x="442" d="M76 -221l98 397h174l-151 -397h-121z" />
<glyph unicode="-" horiz-adv-x="557" d="M96 487v129h365v-129h-365z" />
<glyph unicode="." horiz-adv-x="442" d="M113 94q0 43 31.5 75t74.5 32q44 0 75.5 -31.5t31.5 -73.5q0 -46 -31 -77t-76 -31q-43 0 -74.5 31t-31.5 75z" />
<glyph unicode="/" horiz-adv-x="534" d="M-4 -152l410 1762h135l-410 -1762h-135z" />
<glyph unicode="0" d="M84 342v774q0 176 81 265t216 89q134 0 215.5 -89t81.5 -265v-774q0 -176 -81.5 -265t-215.5 -89q-135 0 -216 89t-81 265zM225 350q0 -122 36 -177.5t120 -55.5q83 0 119.5 56t36.5 177v758q0 121 -36.5 177t-119.5 56q-84 0 -120 -55.5t-36 -177.5v-758z" />
<glyph unicode="1" d="M162 1061v180l190 217h142v-1458h-142v1278z" />
<glyph unicode="2" d="M68 0v131l376 698q76 140 76 289q0 119 -32 171t-115 52q-81 0 -123.5 -58t-42.5 -206h-139q0 195 77.5 294t227.5 99q145 0 218 -84.5t73 -267.5q0 -96 -26 -179.5t-79 -182.5l-334 -625h426v-131h-583z" />
<glyph unicode="3" d="M49 352v31h141v-18q0 -132 42 -190t133 -58q90 0 130 57t40 191v77q0 125 -46 182.5t-149 57.5h-33v129h33q92 0 134 54t42 173v74q0 128 -34 179.5t-120 51.5q-87 0 -123 -52t-36 -179v-29h-142v35q0 181 79.5 268t221.5 87q144 0 219.5 -83t75.5 -264v-98 q0 -219 -159 -276q178 -47 178 -297v-107q0 -188 -82.5 -274t-228.5 -86q-316 0 -316 364z" />
<glyph unicode="4" d="M51 231v129l367 1098h143l-366 -1098h266v398h139v-398h98v-129h-98v-231h-139v231h-410z" />
<glyph unicode="5" d="M86 344h141q3 -125 35 -176t123 -51q47 0 78.5 19.5t47 57.5t21 80t5.5 101v200q0 145 -29.5 203t-118.5 58q-135 0 -156 -146h-131v768h547v-131h-420v-448q55 84 183 84q78 0 131 -26t82 -77t41 -115t12 -153v-234q0 -370 -293 -370q-156 0 -225 88t-74 268z" />
<glyph unicode="6" d="M59 408q0 34 1.5 65t6.5 62t8 52.5t12.5 53.5t13.5 47t18 50.5t18.5 46.5t22 53t22.5 53l232 567h149l-268 -655q39 31 106 31q140 0 213.5 -95t73.5 -317q0 -233 -76 -333.5t-239 -100.5q-159 0 -236.5 99.5t-77.5 320.5zM201 414q0 -166 36 -231.5t136 -65.5 q102 0 138 65.5t36 231.5q0 167 -36 231t-138 64q-96 0 -134 -67.5t-38 -227.5z" />
<glyph unicode="7" d="M66 1106v352h612v-131l-346 -1327h-142l347 1327h-332v-221h-139z" />
<glyph unicode="8" d="M45 397q0 159 39 241t109 120q-64 36 -97 112.5t-33 214.5q0 204 77.5 294.5t230.5 90.5q152 0 229.5 -90.5t77.5 -294.5q0 -137 -33.5 -213t-97.5 -114q46 -26 76.5 -63.5t51.5 -113t21 -184.5q0 -115 -21 -195t-63.5 -126.5t-101 -67t-139.5 -20.5q-165 0 -245.5 92.5 t-80.5 316.5zM186 401q0 -162 40 -224t145 -62q104 0 144 61.5t40 224.5q0 161 -41.5 224t-142.5 63q-102 0 -143.5 -63t-41.5 -224zM205 1079q0 -144 36.5 -203t129.5 -59t129.5 59t36.5 203q0 143 -36 203.5t-130 60.5t-130 -60.5t-36 -203.5z" />
<glyph unicode="9" d="M57 1036q0 233 76.5 333.5t239.5 100.5q159 0 236 -99t77 -320q0 -44 -2.5 -82t-10.5 -78t-13 -63.5t-20.5 -67t-21.5 -59t-27.5 -68t-27.5 -66.5l-229 -567h-152l269 655q-37 -30 -107 -30q-140 0 -213.5 95t-73.5 316zM201 1044q0 -167 35 -230.5t137 -63.5 q97 0 134.5 67t37.5 227q0 166 -36 231.5t-136 65.5q-101 0 -136.5 -65.5t-35.5 -231.5z" />
<glyph unicode=":" horiz-adv-x="442" d="M115 94q0 43 31.5 75t74.5 32t75 -32t32 -73q0 -46 -31 -77t-76 -31q-43 0 -74.5 31t-31.5 75zM115 829q0 44 31.5 75.5t74.5 31.5t75 -30.5t32 -71.5q0 -46 -31.5 -77.5t-75.5 -31.5q-43 0 -74.5 30.5t-31.5 73.5z" />
<glyph unicode=";" horiz-adv-x="442" d="M68 -221l98 397h174l-152 -397h-120zM125 829q0 44 31.5 75.5t74.5 31.5t75 -30.5t32 -71.5q0 -45 -32 -77t-75 -32t-74.5 30.5t-31.5 73.5z" />
<glyph unicode="&#x3c;" d="M61 479v152l615 246v-152l-445 -170l445 -170v-152z" />
<glyph unicode="=" d="M74 311v131h596v-131h-596zM74 659v134h596v-134h-596z" />
<glyph unicode="&#x3e;" d="M61 233v152l445 170l-445 170v152l615 -246v-152z" />
<glyph unicode="?" horiz-adv-x="698" d="M70 1096q3 192 82 283t219 91q136 0 212 -84t76 -262q0 -170 -73 -286l-140 -215q-26 -40 -26 -117v-105h-141v105q0 64 9 102.5t36 79.5l141 217q53 80 53 219q0 115 -34.5 164t-112.5 49q-82 0 -120.5 -54t-39.5 -187h-141zM252 94q0 43 31.5 75t74.5 32t75 -32t32 -73 q0 -45 -32 -76.5t-75 -31.5t-74.5 31t-31.5 75z" />
<glyph unicode="@" horiz-adv-x="1007" d="M92 303v752q0 192 81 298.5t267 106.5h129q349 0 349 -405v-1055h-138v74q-29 -44 -69.5 -65t-106.5 -21q-117 0 -176 78.5t-59 246.5v349q0 323 235 323q67 0 105 -18t71 -58v148q0 67 -9 113.5t-32.5 85t-68.5 57t-113 18.5h-104q-68 0 -113 -19t-69 -57.5t-33 -85 t-9 -112.5v-750q0 -99 14 -140.5t66 -98.5l-100 -86q-70 70 -93.5 131.5t-23.5 189.5zM506 328q0 -125 29 -171t98 -46q72 0 110.5 48t38.5 169v315q0 124 -34 171.5t-105 47.5q-70 0 -103.5 -47.5t-33.5 -171.5v-315z" />
<glyph unicode="A" horiz-adv-x="856" d="M23 0l337 1458h132l344 -1458h-150l-70 307h-378l-68 -307h-147zM266 436h320q1 0 -33 150l-68 300l-34 150l-27 146l-27 -146z" />
<glyph unicode="B" horiz-adv-x="917" d="M139 0v1458h310q193 0 284.5 -92t91.5 -279v-38q0 -112 -44.5 -192.5t-125.5 -106.5q81 -23 134 -110t53 -214v-41q0 -189 -97 -287t-286 -98h-320zM291 135h155q139 0 192.5 69t53.5 204q0 66 -10.5 112.5t-37 84.5t-76 56.5t-122.5 18.5h-155v-545zM291 813h151 q70 0 116.5 16.5t71 51t34.5 78.5t10 108q0 138 -52 197t-186 59h-145v-510z" />
<glyph unicode="C" horiz-adv-x="866" d="M102 410v639q0 97 20 172t52.5 121.5t79 76t95 40.5t104.5 11q334 0 342 -399h-152q-5 136 -45 199t-145 63q-35 0 -61.5 -6t-54 -25t-44.5 -51t-28 -87.5t-11 -131.5v-604q0 -94 15.5 -157t45 -93.5t61.5 -41.5t77 -11q98 0 142.5 62.5t47.5 213.5h152 q-9 -413 -342 -413q-57 0 -105.5 11.5t-95 41t-78.5 75.5t-52 121t-20 173z" />
<glyph unicode="D" horiz-adv-x="935" d="M139 0v1458h318q377 0 377 -420v-620q0 -197 -96 -307.5t-279 -110.5h-320zM291 135h151q119 0 180.5 76.5t61.5 224.5v584q0 89 -17.5 150t-51.5 93.5t-76 46t-99 13.5h-149v-1188z" />
<glyph unicode="E" horiz-adv-x="794" d="M123 0v1458h612v-135h-461v-518h383v-135h-383v-535h465v-135h-616z" />
<glyph unicode="F" horiz-adv-x="788" d="M123 0v1458h612v-135h-461v-541h381v-135h-381v-647h-151z" />
<glyph unicode="G" horiz-adv-x="905" d="M102 410v639q0 97 20 172t52.5 121.5t79 76t95 40.5t104.5 11q331 0 344 -393h-154q-4 137 -49 196.5t-141 59.5q-35 0 -61.5 -6t-54 -25t-44.5 -51t-28 -87.5t-11 -131.5v-604q0 -77 11 -133t28 -88t44.5 -51t54.5 -25t63 -6q47 0 80 11t62.5 42t44.5 94.5t15 159.5v197 h-213v133h363v-346q0 -122 -29 -209.5t-80.5 -133t-110.5 -65.5t-132 -20q-57 0 -106 11.5t-95.5 41t-79 75.5t-52.5 121t-20 173z" />
<glyph unicode="H" horiz-adv-x="985" d="M139 0v1458h152v-653h403v653h152v-1458h-152v668h-403v-668h-152z" />
<glyph unicode="I" horiz-adv-x="438" d="M143 0v1458h152v-1458h-152z" />
<glyph unicode="J" horiz-adv-x="772" d="M35 158l121 82q22 -33 39.5 -53.5t53.5 -41t79 -20.5q88 0 124.5 67t36.5 238v1028h152v-1050q0 -221 -80.5 -320.5t-230.5 -99.5q-190 0 -295 170z" />
<glyph unicode="K" horiz-adv-x="901" d="M139 0v1458h152v-737l399 737h154l-322 -584l363 -874h-162l-299 715l-133 -240v-475h-152z" />
<glyph unicode="L" horiz-adv-x="786" d="M139 0v1458h152v-1323h461v-135h-613z" />
<glyph unicode="M" horiz-adv-x="1169" d="M139 0v1458h148l301 -1007l295 1007h147v-1458h-143v909l6 170l-33 -123l-217 -720h-111l-223 720l-30 123l4 -170v-909h-144z" />
<glyph unicode="N" horiz-adv-x="1019" d="M139 0v1458h140l421 -1016l41 -123l-4 136v1003h142v-1458h-138l-424 1020l-41 117l7 -131v-1006h-144z" />
<glyph unicode="O" horiz-adv-x="907" d="M102 410v639q0 98 20 172.5t52.5 121t79 76t95.5 40.5t106 11t105 -11t94.5 -40.5t79 -76t52 -121t19.5 -172.5v-639q0 -98 -19.5 -173t-52 -121t-79 -75.5t-94.5 -41t-105 -11.5t-106 11.5t-95.5 41t-79 75.5t-52.5 121t-20 173zM254 428q0 -95 15.5 -157.5t45 -93 t62 -41.5t78.5 -11t78 11t62 41.5t45 93t15 157.5v604q0 76 -10.5 131.5t-28 88t-44.5 51t-54 24.5t-63 6q-46 0 -78.5 -11t-62.5 -41t-45 -92t-15 -157v-604z" />
<glyph unicode="P" horiz-adv-x="892" d="M139 0v1458h328q362 0 362 -399v-60q0 -399 -362 -399h-176v-600h-152zM291 735h160q126 0 177.5 64t51.5 213v35q0 150 -50 213t-179 63h-160v-588z" />
<glyph unicode="Q" horiz-adv-x="909" d="M102 410v639q0 97 20 172t52.5 121.5t79.5 76t95.5 40.5t105.5 11t105.5 -11t95 -40.5t79 -76t52.5 -121t20 -172.5v-639q0 -186 -76 -293l117 -121l-107 -96l-116 125q-70 -37 -170 -37q-57 0 -105.5 11.5t-95.5 41t-79.5 75.5t-52.5 121t-20 173zM254 428 q0 -95 15.5 -157.5t45 -93t62 -41.5t78.5 -11q40 0 67 8l-127 135l103 97q8 -9 21.5 -23t41.5 -43.5t46.5 -49.5t17.5 -20q30 68 30 199v604q0 76 -10.5 131.5t-28 88t-44.5 51t-54 24.5t-63 6q-46 0 -78.5 -11t-62.5 -41t-45 -92t-15 -157v-604z" />
<glyph unicode="R" horiz-adv-x="915" d="M139 0v1458h348q170 0 255 -100t85 -277v-49q0 -289 -227 -362l262 -670h-160l-251 649h-162v-649h-150zM289 778h176q209 0 209 260v25q0 136 -50 198t-159 62h-176v-545z" />
<glyph unicode="S" horiz-adv-x="819" d="M61 334h148q7 -115 53 -161t137 -46q106 0 153.5 60.5t47.5 197.5q0 80 -10 126.5t-37 82.5q-20 25 -46.5 41t-76.5 35l-76 26q-82 29 -123.5 55t-76.5 70q-70 90 -70 279q0 186 84.5 278t245.5 92q149 0 229 -75.5t92 -253.5h-147q-6 104 -46 150t-130 46 q-94 0 -137.5 -55.5t-43.5 -177.5q0 -130 39 -180q20 -27 46 -43t81 -35l72 -25q78 -27 122 -51.5t77 -62.5q44 -52 63 -127t19 -189q0 -214 -89.5 -308.5t-263.5 -94.5q-157 0 -243.5 89t-92.5 257z" />
<glyph unicode="T" horiz-adv-x="749" d="M29 1323v135h690v-135h-270v-1323h-150v1323h-270z" />
<glyph unicode="U" horiz-adv-x="956" d="M129 403v1055h150v-1044q0 -159 47 -224t153 -65q105 0 152 65.5t47 223.5v1044h149v-1055q0 -216 -88 -315.5t-260 -99.5q-174 0 -262 99t-88 316z" />
<glyph unicode="V" horiz-adv-x="837" d="M18 1458h154l221 -1003l31 -181l31 181l213 1003h149l-332 -1458h-127z" />
<glyph unicode="W" horiz-adv-x="1208" d="M16 1458h154l143 -958l23 -193l26 193l173 958h129l176 -958l26 -193l23 193l139 958h152l-236 -1458h-135l-184 993l-27 172l-25 -172l-182 -993h-135z" />
<glyph unicode="X" horiz-adv-x="790" d="M6 0l309 756l-286 702h159l170 -432l39 -119l39 119l170 432h154l-287 -702l311 -756h-159l-199 498l-35 106l-35 -106l-194 -498h-156z" />
<glyph unicode="Y" horiz-adv-x="782" d="M10 1458h156l182 -549l43 -153l41 153l182 549h158l-305 -872v-586h-152v586z" />
<glyph unicode="Z" horiz-adv-x="761" d="M66 0v139l471 1184h-453v135h612v-131l-475 -1192h475v-135h-630z" />
<glyph unicode="[" horiz-adv-x="518" d="M150 -152v1762h307v-129h-166v-1504h166v-129h-307z" />
<glyph unicode="\" horiz-adv-x="536" d="M-4 1610h135l410 -1762h-135z" />
<glyph unicode="]" horiz-adv-x="518" d="M59 -23h166v1504h-166v129h308v-1762h-308v129z" />
<glyph unicode="^" d="M74 846l237 624h113l240 -624h-136l-159 448l-162 -448h-133z" />
<glyph unicode="_" horiz-adv-x="772" d="M0 -233h772v-105h-772v105z" />
<glyph unicode="`" horiz-adv-x="966" d="M270 1530h144l141 -313h-109z" />
<glyph unicode="a" horiz-adv-x="743" d="M68 285q0 141 74.5 215.5t201.5 74.5h154v162q0 85 -30.5 117.5t-94.5 32.5q-131 0 -142 -146h-137q6 135 86.5 204t196.5 69q125 0 193.5 -65t68.5 -193v-756h-141v98q-57 -104 -185 -104t-188 80q-57 76 -57 211zM205 289q0 -176 133 -176q42 0 71 13t56 52 q33 51 33 172v115h-140q-76 0 -114.5 -41.5t-38.5 -134.5z" />
<glyph unicode="b" horiz-adv-x="768" d="M106 0v1458h142v-551q63 107 196 107q146 0 207 -133q39 -86 39 -201v-354q0 -123 -39 -209q-60 -129 -211 -129q-73 0 -118 24.5t-74 75.5v-88h-142zM248 340q0 -119 39.5 -172t113.5 -53q73 0 110.5 51t37.5 174v322q0 123 -37.5 174t-110.5 51q-74 0 -113.5 -53 t-39.5 -172v-322z" />
<glyph unicode="c" horiz-adv-x="694" d="M78 334v334q0 174 76.5 260t203.5 86q270 0 279 -295h-139q-6 90 -37 129t-103 39q-68 0 -103.5 -50.5t-35.5 -174.5v-320q0 -125 35.5 -176t103.5 -51q70 0 103.5 42t36.5 130h141q-5 -138 -76 -218.5t-205 -80.5q-127 0 -203.5 85.5t-76.5 260.5z" />
<glyph unicode="d" horiz-adv-x="768" d="M78 326v354q0 115 39 201q58 133 207 133q75 0 120.5 -27.5t75.5 -79.5v551h142v-1458h-142v88q-29 -51 -74 -75.5t-118 -24.5q-154 0 -211 129q-39 86 -39 209zM219 340q0 -123 38 -174t110 -51q155 0 155 225v322q0 225 -155 225q-72 0 -110 -51t-38 -174v-322z" />
<glyph unicode="e" horiz-adv-x="727" d="M78 344v315q0 181 77 268t212 87q282 0 282 -346v-209h-432v-107q0 -133 38.5 -186t115.5 -53q70 0 102 35.5t35 119.5h137q-6 -134 -74.5 -207t-199.5 -73q-137 0 -215 86.5t-78 269.5zM217 571h293v95q0 126 -33.5 175.5t-109.5 49.5t-113 -51.5t-37 -182.5v-86z" />
<glyph unicode="f" horiz-adv-x="440" d="M35 895v111h96v231q0 106 53.5 163.5t151.5 57.5h78v-129h-54q-47 0 -67.5 -25t-20.5 -83v-215h142v-111h-142v-895h-141v895h-96z" />
<glyph unicode="g" horiz-adv-x="761" d="M78 336v344q0 115 39 201q58 133 207 133q75 0 120.5 -27.5t75.5 -79.5v99h142v-1119q0 -190 -73.5 -271t-215.5 -81q-125 0 -199.5 68t-81.5 200h139q5 -69 37.5 -106t104.5 -37q77 0 112 54t35 184v202q-28 -52 -73.5 -77t-118.5 -25q-152 0 -211 129q-39 89 -39 209z M219 350q0 -122 38 -173.5t110 -51.5q155 0 155 225v312q0 225 -155 225q-72 0 -110 -51t-38 -174v-312z" />
<glyph unicode="h" horiz-adv-x="774" d="M111 0v1458h141v-549q57 105 190 105q114 0 171 -69.5t57 -188.5v-756h-142v721q0 88 -30 125t-97 37q-149 0 -149 -162v-721h-141z" />
<glyph unicode="i" horiz-adv-x="391" d="M98 1370q0 41 29 69.5t68 28.5q40 0 69 -28t29 -66q0 -41 -28 -70.5t-68 -29.5t-69.5 29t-29.5 67zM123 0v1006h145v-1006h-145z" />
<glyph unicode="j" horiz-adv-x="393" d="M2 -324h31q55 0 77.5 29.5t22.5 93.5v1207h143v-1213q0 -114 -56 -179t-169 -65h-49v127zM104 1370q0 41 28.5 69.5t68.5 28.5q39 0 68.5 -28t29.5 -66q0 -41 -28 -70.5t-68 -29.5q-41 0 -70 28.5t-29 67.5z" />
<glyph unicode="k" horiz-adv-x="743" d="M111 0v1458h137v-911l274 459h148l-228 -377l265 -629h-150l-211 494l-2 -4q-3 -5 -9 -14.5t-13 -21.5t-16.5 -27.5t-18.5 -30t-20 -32t-19 -30.5v-334h-137z" />
<glyph unicode="l" horiz-adv-x="391" d="M125 0v1458h141v-1458h-141z" />
<glyph unicode="m" horiz-adv-x="1193" d="M111 0v1006h141v-97q61 105 190 105q142 0 193 -109q40 58 93 83.5t134 25.5q113 0 170.5 -69.5t57.5 -188.5v-756h-142v721q0 88 -30.5 125t-98.5 37q-149 0 -149 -162v-721h-142v721q0 87 -30.5 124.5t-96.5 37.5q-149 0 -149 -162v-721h-141z" />
<glyph unicode="n" horiz-adv-x="774" d="M111 0v1006h141v-97q57 105 190 105q114 0 171 -69.5t57 -188.5v-756h-142v721q0 88 -30 125t-97 37q-149 0 -149 -162v-721h-141z" />
<glyph unicode="o" horiz-adv-x="735" d="M78 332v340q0 172 77 257t212 85q136 0 213 -84.5t77 -257.5v-340q0 -175 -77 -259.5t-213 -84.5q-135 0 -212 84.5t-77 259.5zM219 340q0 -125 36.5 -175t111.5 -50q76 0 112.5 50t36.5 175v324q0 124 -36.5 173.5t-112.5 49.5q-75 0 -111.5 -50t-36.5 -173v-324z" />
<glyph unicode="p" horiz-adv-x="772" d="M111 -453v1459h141v-99q30 52 76 79.5t121 27.5q148 0 206 -133q39 -86 39 -201v-354q0 -123 -39 -209q-57 -129 -211 -129q-73 0 -118 24.5t-74 75.5v-541h-141zM250 340q0 -225 156 -225q72 0 109.5 51t37.5 174v322q0 123 -37.5 174t-109.5 51q-156 0 -156 -225v-322z " />
<glyph unicode="q" horiz-adv-x="772" d="M78 326v354q0 115 39 201q58 133 207 133q75 0 120.5 -27.5t75.5 -79.5v99h142v-1459h-142v541q-29 -51 -74 -75.5t-118 -24.5q-154 0 -211 129q-39 86 -39 209zM219 340q0 -123 38 -174t110 -51q155 0 155 225v322q0 225 -155 225q-72 0 -110 -51t-38 -174v-322z" />
<glyph unicode="r" horiz-adv-x="540" d="M111 0v1006h141v-107q57 111 209 111l37 -2v-140q-1 0 -10 1t-25 2t-33 1q-178 0 -178 -184v-688h-141z" />
<glyph unicode="s" horiz-adv-x="673" d="M68 262h137q6 -80 35.5 -114.5t93.5 -34.5q71 0 100 40.5t29 129.5q0 75 -18.5 105t-79.5 50l-91 29q-107 35 -149.5 94t-42.5 182q0 140 69.5 207.5t186.5 67.5q114 0 182 -61t72 -191h-135q-4 74 -32.5 101.5t-88.5 27.5q-65 0 -92 -33t-27 -112q0 -74 19 -104.5 t77 -49.5l88 -29q43 -14 70.5 -27t54 -34.5t41 -49.5t23 -70t8.5 -99q0 -299 -264 -299q-250 0 -266 274z" />
<glyph unicode="t" horiz-adv-x="452" d="M35 895v111h96v311h141v-311h142v-111h-142v-657q0 -59 20.5 -84t67.5 -25h54v-129h-78q-98 0 -151.5 57.5t-53.5 163.5v674h-96z" />
<glyph unicode="u" horiz-adv-x="774" d="M104 252v754h142v-721q0 -87 30 -123.5t97 -36.5q149 0 149 162v719h142v-1006h-142v96q-57 -104 -190 -104q-114 0 -171 69.5t-57 190.5z" />
<glyph unicode="v" horiz-adv-x="643" d="M10 1006h146l141 -625l25 -156l24 156l143 625h144l-250 -1006h-123z" />
<glyph unicode="w" horiz-adv-x="1015" d="M10 1006h146l118 -639l19 -140l22 140l140 639h112l140 -639l22 -140l19 140l118 639h146l-211 -1006h-125l-141 641l-25 133l-23 -133l-141 -641h-125z" />
<glyph unicode="x" horiz-adv-x="659" d="M31 0l225 514l-215 492h143l121 -289l25 -82l26 82l117 289h145l-217 -492l228 -514h-146l-127 311l-26 86l-25 -86l-131 -311h-143z" />
<glyph unicode="y" horiz-adv-x="626" d="M10 1006h146l141 -631l25 -139l24 139l143 631h144l-305 -1233q-25 -98 -62 -140q-52 -65 -176 -65h-35v131h29q54 0 76 25.5t41 101.5l51 207z" />
<glyph unicode="z" horiz-adv-x="628" d="M63 0v125l349 749h-326v132h481v-125l-350 -750h350v-131h-504z" />
<glyph unicode="{" horiz-adv-x="561" d="M57 664v131h35q55 0 86 39q27 39 27 114v398q0 74 7.5 114t31.5 74q54 76 186 76h68v-127h-49q-68 0 -89 -33q-14 -27 -14 -115v-407q0 -87 -28 -130t-91 -69q63 -26 91 -70t28 -131v-405q0 -88 14 -115q21 -33 89 -33h49v-127h-68q-132 0 -186 76q-24 34 -31.5 74 t-7.5 115v395q0 78 -27 117q-31 39 -86 39h-35z" />
<glyph unicode="|" horiz-adv-x="493" d="M182 -152v1762h135v-1762h-135z" />
<glyph unicode="}" horiz-adv-x="561" d="M63 -25h50q70 0 88 33q14 27 14 115v405q0 87 28.5 131t92.5 70q-64 26 -92.5 69t-28.5 130v407q0 88 -14 115q-18 33 -88 33h-50v127h68q132 0 186 -76q24 -34 31.5 -74t7.5 -114v-398q0 -75 27 -114q31 -39 86 -39h35v-131h-35q-55 0 -86 -39q-27 -39 -27 -117v-395 q0 -75 -7.5 -115t-31.5 -74q-54 -76 -186 -76h-68v127z" />
<glyph unicode="~" d="M25 524q46 74 93 112t124 38q28 0 56.5 -9.5t45.5 -19.5t47 -29q6 -4 22 -14.5t23 -14.5t19.5 -10.5t23 -9t21.5 -2.5q39 0 64.5 20t56.5 70l98 -67q-22 -36 -40.5 -60t-44 -47t-58.5 -34t-74 -11q-60 0 -146 58q-6 4 -22.5 15.5t-23.5 15.5t-19.5 10.5t-23 9t-21.5 2.5 q-39 0 -65.5 -20.5t-57.5 -69.5z" />
<glyph unicode="&#xa3;" d="M12 680v102h107v342q0 349 295 349q141 0 221 -87t80 -268v-18h-142q0 35 -1.5 59.5t-6.5 55.5t-15.5 51.5t-27.5 39.5t-44.5 28t-63.5 9q-86 0 -120 -52.5t-34 -180.5v-328h256v-102h-256v-549h442v-131h-583v680h-107z" />
<glyph unicode="&#xa9;" horiz-adv-x="1638" d="M78 729q0 151 58.5 288.5t157.5 236.5t236.5 157.5t288.5 58.5q148 0 285 -59t237 -157t160 -232t60 -279q0 -156 -58 -296t-156.5 -240.5t-236.5 -159.5t-291 -59q-151 0 -288.5 58.5t-236.5 157.5t-157.5 236.5t-58.5 288.5zM199 729q0 -170 83 -315.5t226 -230.5 t311 -85q165 0 308.5 84.5t228 227.5t84.5 307q0 176 -82 324t-225 233.5t-314 85.5q-168 0 -311 -85t-226 -230.5t-83 -315.5zM465 729q0 193 98.5 305.5t267.5 112.5q64 0 132 -21q57 -20 135 -88l-76 -75q-55 47 -94.5 63t-96.5 16q-251 0 -251 -323q0 -146 65.5 -224.5 t188.5 -78.5q56 0 93.5 16.5t94.5 63.5l76 -76q-44 -38 -70.5 -55t-60.5 -29q-59 -23 -136 -23q-170 0 -268 111t-98 305z" />
<glyph unicode="&#xab;" horiz-adv-x="903" d="M55 549l391 391v-182l-208 -209l208 -211v-182zM430 549l393 391v-182l-213 -209l213 -211v-182z" />
<glyph unicode="&#xad;" horiz-adv-x="557" d="M96 487v129h365v-129h-365z" />
<glyph unicode="&#xae;" horiz-adv-x="897" d="M63 1087q0 160 113 273t273 113q157 0 271 -112.5t114 -266.5q0 -165 -111.5 -278.5t-273.5 -113.5q-160 0 -273 112.5t-113 272.5zM125 1087q0 -136 95 -232.5t229 -96.5q132 0 228.5 95.5t96.5 227.5q0 140 -94.5 237t-230.5 97q-133 0 -228.5 -96.5t-95.5 -231.5z M324 877v421h145q55 0 93 -37t38 -92q0 -42 -24.5 -71t-65.5 -41l100 -180h-67l-97 172h-63v-172h-59zM383 1098h78q34 0 57 20.5t23 52.5t-23 53t-57 21h-78v-147z" />
<glyph unicode="&#xbb;" horiz-adv-x="903" d="M82 156v182l211 211l-211 209v182l391 -391zM457 156v182l211 211l-211 209v182l391 -391z" />
<glyph unicode="&#x401;" horiz-adv-x="794" d="M123 0v1458h612v-137h-461v-516h383v-137h-383v-531h465v-137h-616zM213 1651q0 38 26.5 65t63.5 27t65.5 -27t28.5 -63q0 -39 -27.5 -66.5t-64.5 -27.5q-38 0 -65 27t-27 65zM496 1651q0 38 26.5 65t63.5 27t64.5 -26.5t27.5 -63.5q0 -39 -26.5 -66.5t-63.5 -27.5 q-38 0 -65 27t-27 65z" />
<glyph unicode="&#x402;" horiz-adv-x="1034" d="M29 1321v137h690v-137h-330v-440q28 10 89 21t102 11q170 0 260 -99t90 -296v-522q0 -114 -61.5 -185t-174.5 -71h-47v135h29q54 0 78 31t24 96v500q0 150 -50.5 213t-176.5 63q-74 0 -162 -26v-752h-149v1321h-211z" />
<glyph unicode="&#x403;" horiz-adv-x="782" d="M123 0v1458h610v-137h-459v-1321h-151zM297 1516l156 278h153l-198 -278h-111z" />
<glyph unicode="&#x404;" horiz-adv-x="866" d="M102 410v639q0 97 20 172t52.5 121.5t79 76t95 40.5t104.5 11q333 0 344 -397h-154q-3 134 -43.5 198t-146.5 64q-36 0 -63 -6.5t-54.5 -25.5t-44.5 -51.5t-28 -88t-11 -131.5v-227h332v-135h-332v-242q0 -76 11 -132t29 -88.5t45 -52t54 -26t62 -6.5q98 0 143.5 63 t48.5 213h152q-9 -411 -344 -411q-57 0 -105.5 11.5t-95 41t-78.5 75.5t-52 121t-20 173z" />
<glyph unicode="&#x405;" horiz-adv-x="819" d="M61 334h148q7 -113 53 -160t137 -47q106 0 153.5 60.5t47.5 197.5q0 80 -10 126.5t-37 82.5q-20 24 -45.5 39.5t-77.5 34.5l-76 26q-82 30 -123.5 56t-76.5 71q-70 90 -70 279q0 186 84.5 278t245.5 92q150 0 230.5 -76t90.5 -253h-149q-5 104 -44.5 149t-129.5 45 q-94 0 -137.5 -54.5t-43.5 -176.5q0 -130 39 -180q20 -27 46 -43t81 -35l72 -25q78 -27 122 -51.5t77 -62.5q44 -52 63 -127t19 -189q0 -214 -89.5 -308.5t-263.5 -94.5q-157 0 -243.5 89t-92.5 257z" />
<glyph unicode="&#x406;" horiz-adv-x="438" d="M143 0v1458h152v-1458h-152z" />
<glyph unicode="&#x407;" horiz-adv-x="438" d="M-12 1651q0 38 26.5 65t63.5 27t65.5 -27t28.5 -63q0 -39 -27.5 -66.5t-64.5 -27.5q-38 0 -65 27t-27 65zM143 0v1458h152v-1458h-152zM270 1651q0 38 26.5 65t63.5 27t65 -27t28 -63q0 -39 -27 -66.5t-64 -27.5q-38 0 -65 27t-27 65z" />
<glyph unicode="&#x408;" horiz-adv-x="772" d="M35 158l121 82q22 -32 40 -53t54 -41.5t78 -20.5q88 0 124.5 67t36.5 238v1028h152v-1050q0 -221 -80.5 -320.5t-230.5 -99.5q-190 0 -295 170z" />
<glyph unicode="&#x409;" horiz-adv-x="1458" d="M-16 0v139h8q65 0 111.5 29t74 85.5t40.5 130t15 173.5l21 901h602v-622h178q363 0 363 -400v-37q0 -399 -363 -399h-327v1321h-304l-18 -807q-2 -83 -13 -154t-37 -139t-65 -115.5t-100.5 -76.5t-140.5 -29h-45zM856 137h162q128 0 177.5 63.5t49.5 213.5v10 q0 150 -50.5 213t-176.5 63h-162v-563z" />
<glyph unicode="&#x40a;" horiz-adv-x="1445" d="M139 0v1458h152v-622h403v622h152v-622h176q362 0 362 -400v-37q0 -399 -362 -399h-328v698h-403v-698h-152zM846 137h160q128 0 178.5 64t50.5 213v10q0 149 -51.5 212.5t-177.5 63.5h-160v-563z" />
<glyph unicode="&#x40b;" horiz-adv-x="1034" d="M29 1321v137h690v-137h-330v-440q28 10 89 21t102 11q170 0 260 -99t90 -296v-518h-152v502q0 150 -50.5 213t-176.5 63q-74 0 -162 -26v-752h-149v1321h-211z" />
<glyph unicode="&#x40c;" horiz-adv-x="901" d="M139 0v1458h152v-733l399 733h154l-322 -584l363 -874h-162l-299 713l-133 -238v-475h-152zM340 1516l158 278h151l-198 -278h-111z" />
<glyph unicode="&#x40e;" horiz-adv-x="815" d="M8 1458h152l215 -663q0 -1 8 -31.5t18.5 -70t16.5 -64.5l233 829h156l-375 -1251q-27 -96 -70 -141q-61 -66 -184 -66h-80v137h76q55 0 80 24t47 97l47 158zM133 1782h113q8 -60 46.5 -98.5t108.5 -38.5q71 0 109 39t45 98h113q-12 -115 -84.5 -179.5t-184.5 -64.5 q-114 0 -183.5 62.5t-82.5 181.5z" />
<glyph unicode="&#x40f;" horiz-adv-x="985" d="M139 0v1458h152v-1321h403v1321h152v-1458h-285v-330h-139v330h-283z" />
<glyph unicode="&#x410;" horiz-adv-x="856" d="M23 0l337 1458h132l344 -1458h-150l-70 307h-378l-68 -307h-147zM266 436h320q1 0 -33 150l-68 300l-34 150l-27 146l-27 -146z" />
<glyph unicode="&#x411;" horiz-adv-x="917" d="M139 0v1458h635v-137h-483v-463h188q363 0 363 -399v-60q0 -399 -363 -399h-340zM291 137h172q128 0 177.5 63.5t49.5 213.5v30q0 150 -50.5 213.5t-176.5 63.5h-172v-584z" />
<glyph unicode="&#x412;" horiz-adv-x="917" d="M139 0v1458h310q193 0 284.5 -92t91.5 -279v-38q0 -112 -44.5 -192.5t-125.5 -106.5q81 -23 134 -110t53 -214v-41q0 -189 -97 -287t-286 -98h-320zM291 135h155q139 0 192.5 69t53.5 204q0 66 -10.5 112.5t-37 84.5t-76 56.5t-122.5 18.5h-155v-545zM291 813h151 q70 0 116.5 16.5t71 51t34.5 78.5t10 108q0 138 -52 197t-186 59h-145v-510z" />
<glyph unicode="&#x413;" horiz-adv-x="782" d="M123 0v1458h610v-137h-459v-1321h-151z" />
<glyph unicode="&#x414;" horiz-adv-x="1021" d="M14 137h95q97 232 129 461t32 672v188h594v-1321h131v-467h-139v330h-700v-330h-142v467zM266 137h449v1184h-299v-199q0 -270 -15.5 -437.5t-44 -277t-90.5 -270.5z" />
<glyph unicode="&#x415;" horiz-adv-x="794" d="M123 0v1458h612v-135h-461v-518h383v-135h-383v-535h465v-135h-616z" />
<glyph unicode="&#x416;" horiz-adv-x="1323" d="M14 0l355 862l-314 596h154l379 -719v719h149v-727l379 727h154l-316 -596l355 -862h-156l-291 705l-125 -230v-475h-149v475l-125 230l-293 -705h-156z" />
<glyph unicode="&#x417;" horiz-adv-x="825" d="M61 334v43h148v-33q0 -219 190 -219q106 0 153.5 61t47.5 203v53q0 126 -45.5 183t-148.5 57h-91v129h91q93 0 137.5 54.5t44.5 172.5v64q0 125 -43.5 180t-138.5 55q-90 0 -132.5 -50t-42.5 -152v-37h-147v43q0 167 85.5 248t233.5 81q160 0 246 -90t86 -276v-76 q0 -101 -41 -173.5t-125 -102.5q181 -47 181 -297v-70q0 -212 -90.5 -304.5t-262.5 -92.5q-157 0 -246.5 92.5t-89.5 253.5z" />
<glyph unicode="&#x418;" horiz-adv-x="1001" d="M139 0v1458h148v-997q0 -13 -2.5 -80t-3.5 -74l32 99l408 1052h139v-1458h-147v1001q0 7 4 75t4 71l-33 -88l-407 -1059h-142z" />
<glyph unicode="&#x419;" horiz-adv-x="1001" d="M139 0v1458h148v-997q0 -13 -2.5 -80t-3.5 -74l32 99l408 1052h139v-1458h-147v1001q0 7 4 75t4 71l-33 -88l-407 -1059h-142zM254 1782h113q7 -60 45 -98.5t110 -38.5q71 0 109 39t45 98h110q-12 -115 -84 -179.5t-184 -64.5t-181.5 63t-82.5 181z" />
<glyph unicode="&#x41a;" horiz-adv-x="901" d="M139 0v1458h152v-733l399 733h154l-322 -584l363 -874h-162l-299 713l-133 -238v-475h-152z" />
<glyph unicode="&#x41b;" horiz-adv-x="997" d="M-16 0v139h8q65 0 111.5 29t74 85.5t40.5 130t15 173.5l23 901h600v-1458h-149v1321h-301l-21 -807q-2 -83 -13 -154t-37 -139t-65 -115.5t-100.5 -76.5t-140.5 -29h-45z" />
<glyph unicode="&#x41c;" horiz-adv-x="1169" d="M139 0v1458h148l301 -1005l295 1005h147v-1458h-143v909l4 170l-31 -125l-217 -718h-111l-223 718l-30 125l4 -170v-909h-144z" />
<glyph unicode="&#x41d;" horiz-adv-x="985" d="M139 0v1458h152v-653h403v653h152v-1458h-152v668h-403v-668h-152z" />
<glyph unicode="&#x41e;" horiz-adv-x="907" d="M102 410v639q0 98 20 172.5t52.5 121t79 76t95.5 40.5t106 11t105 -11t94.5 -40.5t79 -76t52 -121t19.5 -172.5v-639q0 -98 -19.5 -173t-52 -121t-79 -75.5t-94.5 -41t-105 -11.5t-106 11.5t-95.5 41t-79 75.5t-52.5 121t-20 173zM254 428q0 -95 15.5 -157.5t45 -93 t62 -41.5t78.5 -11t78 11t62 41.5t45 93t15 157.5v604q0 76 -10.5 131t-28 87.5t-44.5 51.5t-54 25t-63 6q-46 0 -78.5 -11t-62 -41.5t-45 -92.5t-15.5 -156v-604z" />
<glyph unicode="&#x41f;" horiz-adv-x="985" d="M139 0v1458h707v-1458h-152v1321h-403v-1321h-152z" />
<glyph unicode="&#x420;" horiz-adv-x="892" d="M139 0v1458h328q364 0 364 -399v-60q0 -399 -364 -399h-176v-600h-152zM291 735h160q126 0 177.5 64t51.5 213v35q0 150 -50 213t-179 63h-160v-588z" />
<glyph unicode="&#x421;" horiz-adv-x="866" d="M102 410v639q0 97 20 172t52.5 121.5t79 76t95 40.5t104.5 11q334 0 342 -399h-154q-3 135 -43 198.5t-145 63.5q-45 0 -77 -11t-61.5 -41.5t-45 -92.5t-15.5 -156v-604q0 -94 15.5 -157t45 -93.5t61.5 -41.5t77 -11q98 0 142.5 62.5t47.5 213.5h152q-6 -413 -342 -413 q-57 0 -105.5 11.5t-95 41t-78.5 75.5t-52 121t-20 173z" />
<glyph unicode="&#x422;" horiz-adv-x="749" d="M29 1321v137h690v-137h-270v-1321h-150v1321h-270z" />
<glyph unicode="&#x423;" horiz-adv-x="815" d="M8 1458h152l215 -663q0 -1 8 -31.5t18.5 -70t16.5 -64.5l233 829h156l-375 -1251q-27 -96 -70 -141q-61 -66 -184 -66h-80v137h76q55 0 80 24t47 97l47 158z" />
<glyph unicode="&#x424;" horiz-adv-x="1169" d="M90 559v350q0 420 354 420h66v129h152v-129h63q356 0 356 -420v-350q0 -422 -356 -422h-63v-137h-152v137h-66q-354 0 -354 422zM240 578q0 -76 11.5 -131t30 -87.5t46.5 -52t56 -25.5t65 -6h63v914h-66q-46 0 -79 -11t-64 -41t-47 -92.5t-16 -156.5v-311zM659 276h64 q36 0 63.5 6t56 25.5t46.5 51.5t29.5 87.5t11.5 131.5v311q0 76 -11.5 131t-29.5 87.5t-46 51.5t-55.5 25t-64.5 6h-64v-914z" />
<glyph unicode="&#x425;" horiz-adv-x="790" d="M6 0l309 756l-286 702h159l170 -432l39 -119l39 119l170 432h154l-287 -702l311 -756h-159l-199 498l-35 106l-35 -106l-194 -498h-156z" />
<glyph unicode="&#x426;" horiz-adv-x="1007" d="M139 0v1458h152v-1321h403v1321h152v-1321h131v-467h-141v330h-697z" />
<glyph unicode="&#x427;" horiz-adv-x="925" d="M94 973v485h152v-469q0 -150 50.5 -213t176.5 -63q74 0 162 26v719h149v-1458h-149v612q-26 -11 -86.5 -21.5t-102.5 -10.5q-171 0 -261.5 98.5t-90.5 294.5z" />
<glyph unicode="&#x428;" horiz-adv-x="1421" d="M139 0v1458h152v-1321h344v1321h151v-1321h344v1321h152v-1458h-1143z" />
<glyph unicode="&#x429;" horiz-adv-x="1443" d="M139 0v1458h152v-1321h344v1321h151v-1321h344v1321h152v-1321h131v-467h-141v330h-1133z" />
<glyph unicode="&#x42a;" horiz-adv-x="1040" d="M29 1321v137h411v-598h176q363 0 363 -399v-62q0 -399 -363 -399h-327v1321h-260zM440 137h160q129 0 179 63.5t50 213.5v35q0 149 -51.5 212.5t-177.5 63.5h-160v-588z" />
<glyph unicode="&#x42b;" horiz-adv-x="1273" d="M139 0v1458h152v-598h176q364 0 364 -399v-62q0 -399 -364 -399h-328zM291 137h160q129 0 179 63.5t50 213.5v35q0 149 -51.5 212.5t-177.5 63.5h-160v-588zM983 0v1458h152v-1458h-152z" />
<glyph unicode="&#x42c;" horiz-adv-x="890" d="M139 0v1458h152v-598h176q364 0 364 -399v-62q0 -399 -364 -399h-328zM291 137h160q129 0 179 63.5t50 213.5v35q0 149 -51.5 212.5t-177.5 63.5h-160v-588z" />
<glyph unicode="&#x42d;" horiz-adv-x="866" d="M72 399h149q4 -150 49.5 -213t143.5 -63q44 0 76.5 11.5t62.5 42t45.5 94t15.5 157.5v242h-329v135h329v227q0 94 -15 156.5t-44.5 93t-62.5 42t-78 11.5q-106 0 -147 -64.5t-44 -197.5h-151q8 397 342 397q56 0 104 -11t94.5 -40.5t79 -76t52.5 -121.5t20 -172v-639 q0 -98 -19.5 -173t-52 -121t-79 -75.5t-94.5 -41t-105 -11.5q-333 0 -342 411z" />
<glyph unicode="&#x42e;" horiz-adv-x="1263" d="M139 0v1458h152v-653h168v244q0 421 352 421q57 0 105 -11t94.5 -40.5t79 -76t52 -121t19.5 -172.5v-639q0 -98 -19.5 -173t-52 -121t-79 -75.5t-94.5 -41t-105 -11.5q-73 0 -132 19.5t-110.5 64.5t-80.5 131t-29 207v258h-168v-668h-152zM610 428q0 -95 15.5 -157.5 t45 -93t62 -41.5t78.5 -11t78.5 11t62 41.5t45 93t15.5 157.5v604q0 94 -15.5 156t-45 92.5t-62 41.5t-78.5 11t-78.5 -11t-62 -41.5t-45 -92.5t-15.5 -156v-604z" />
<glyph unicode="&#x42f;" horiz-adv-x="919" d="M53 0l262 633q-225 74 -225 366v80q0 179 85 279t257 100h348v-1458h-151v612h-164l-252 -612h-160zM242 1001q0 -258 209 -258h178v580h-178q-109 0 -159 -61.5t-50 -196.5v-64z" />
<glyph unicode="&#x430;" horiz-adv-x="743" d="M68 285q0 141 74.5 215.5t201.5 74.5h154v162q0 85 -30.5 117.5t-94.5 32.5q-131 0 -142 -146h-137q6 135 86.5 205t196.5 70q125 0 193.5 -66t68.5 -194v-756h-141v98q-57 -104 -185 -104t-188 80q-57 76 -57 211zM205 289q0 -176 133 -176q42 0 71 13t56 52 q33 51 33 172v115h-140q-76 0 -114.5 -41.5t-38.5 -134.5z" />
<glyph unicode="&#x431;" horiz-adv-x="735" d="M82 332v411q0 105 1 161t6 132.5t15.5 123t29.5 95.5t48 86q22 28 52 48t55 30.5t68.5 18t64.5 9.5t72.5 4t64.5 3l66 4v-125l-33 -2q-14 -1 -65 -2t-78 -4t-68 -10.5t-71 -25t-52 -44.5q-65 -80 -65 -344h4q17 40 67.5 70t122.5 30q125 0 200 -86.5t75 -257.5v-325 q0 -175 -77.5 -259.5t-213.5 -84.5q-135 0 -212 84.5t-77 259.5zM223 340q0 -125 36.5 -175t111.5 -50q76 0 112.5 50t36.5 175v313q0 124 -36.5 174t-112.5 50q-74 0 -111 -50t-37 -174v-313z" />
<glyph unicode="&#x432;" horiz-adv-x="735" d="M109 0v1006h280q134 0 197 -63.5t63 -192.5v-29q0 -162 -117 -205q61 -19 95.5 -77.5t34.5 -139.5v-31q0 -129 -65.5 -198.5t-199.5 -69.5h-288zM250 119h115q88 0 121.5 41.5t33.5 126.5q0 86 -33 127t-122 41h-115v-336zM250 573h110q87 0 117.5 36.5t30.5 119.5 q0 88 -33 123t-119 35h-106v-314z" />
<glyph unicode="&#x433;" horiz-adv-x="602" d="M109 0v1006h477v-125h-334v-881h-143z" />
<glyph unicode="&#x434;" horiz-adv-x="796" d="M6 125h86q63 152 83 302.5t20 449.5v129h479v-881h110v-399h-131v274h-516v-274h-131v399zM240 125h292v756h-198v-121q0 -253 -18.5 -372t-75.5 -263z" />
<glyph unicode="&#x435;" horiz-adv-x="727" d="M78 344v315q0 181 77 268t212 87q282 0 282 -346v-209h-432v-107q0 -133 38.5 -186t115.5 -53q70 0 102 35.5t35 119.5h137q-6 -134 -74.5 -207t-199.5 -73q-137 0 -215 86.5t-78 269.5zM217 571h293v95q0 126 -33.5 175.5t-109.5 49.5t-113 -51.5t-37 -182.5v-86z" />
<glyph unicode="&#x436;" horiz-adv-x="1075" d="M29 0l270 592l-236 414h150l256 -453v453h137v-453l256 453h150l-236 -414l273 -592h-154l-213 457l-76 -131v-326h-137v326l-76 131l-213 -457h-151z" />
<glyph unicode="&#x437;" horiz-adv-x="673" d="M63 272h134q0 -71 32 -115t99 -44q72 0 100.5 41.5t28.5 130.5v28q0 77 -30 110.5t-99 33.5h-76v114h76q61 0 91 34t30 108v35q0 79 -27 112t-92 33q-74 0 -99 -43q-22 -34 -22 -102h-133q0 126 57 188q33 36 88.5 58t106.5 22q130 0 193 -65t63 -206v-49 q0 -59 -27.5 -106.5t-83.5 -69.5q121 -42 121 -198v-41q0 -148 -64.5 -220.5t-201.5 -72.5q-164 0 -228 116q-37 63 -37 168z" />
<glyph unicode="&#x438;" horiz-adv-x="794" d="M109 0v1006h143v-555q0 -49 -6 -172l305 727h135v-1006h-143v543q0 110 8 180l-307 -723h-135z" />
<glyph unicode="&#x439;" horiz-adv-x="794" d="M109 0v1006h143v-555q0 -49 -6 -172l305 727h135v-1006h-143v543q0 110 8 180l-307 -723h-135zM147 1384h113q8 -59 42 -94t97 -35q60 0 96 36.5t42 92.5h112q-13 -114 -81 -174.5t-171 -60.5q-104 0 -170.5 58.5t-79.5 176.5z" />
<glyph unicode="&#x43a;" horiz-adv-x="735" d="M109 0v1006h141v-457l276 457h148l-250 -418l287 -588h-154l-225 453l-82 -136v-317h-141z" />
<glyph unicode="&#x43b;" horiz-adv-x="784" d="M0 0v123h18q78 0 109.5 64t34.5 200l14 619h498v-1006h-142v887h-223l-12 -529q-1 -57 -7.5 -104.5t-23.5 -96t-43.5 -82t-71.5 -54.5t-104 -21h-47z" />
<glyph unicode="&#x43c;" horiz-adv-x="968" d="M109 0v1006h153l225 -666l218 666h155v-1006h-143v524q0 4 3 78t3 78h-6l-182 -520h-99l-184 520h-6q1 -4 3.5 -74t2.5 -82v-524h-143z" />
<glyph unicode="&#x43d;" horiz-adv-x="780" d="M109 0v1006h143v-435h276v435h142v-1006h-142v444h-276v-444h-143z" />
<glyph unicode="&#x43e;" horiz-adv-x="735" d="M78 332v340q0 173 77.5 258.5t211.5 85.5q136 0 213 -85.5t77 -258.5v-340q0 -175 -77 -259.5t-213 -84.5q-135 0 -212 84.5t-77 259.5zM219 340q0 -125 36.5 -175t111.5 -50q76 0 112.5 50t36.5 175v324q0 124 -36.5 173.5t-112.5 49.5q-75 0 -111.5 -50t-36.5 -173 v-324z" />
<glyph unicode="&#x43f;" horiz-adv-x="780" d="M109 0v1006h561v-1006h-142v881h-276v-881h-143z" />
<glyph unicode="&#x440;" horiz-adv-x="772" d="M109 -453v1459h143v-99q63 107 197 107q148 0 206 -131q39 -89 39 -203v-354q0 -123 -39 -209q-57 -129 -211 -129q-73 0 -118 24.5t-74 75.5v-541h-143zM250 340q0 -225 156 -225q72 0 109.5 51t37.5 174v322q0 123 -37.5 174t-109.5 51q-156 0 -156 -225v-322z" />
<glyph unicode="&#x441;" horiz-adv-x="694" d="M78 334v334q0 174 76.5 260t203.5 86q270 0 279 -295h-139q-6 90 -37 129t-103 39q-68 0 -103.5 -50.5t-35.5 -174.5v-320q0 -125 35.5 -176t103.5 -51q70 0 103.5 42t36.5 130h141q-5 -138 -76 -218.5t-205 -80.5q-127 0 -203.5 85.5t-76.5 260.5z" />
<glyph unicode="&#x442;" horiz-adv-x="612" d="M16 881v125h580v-125h-219v-881h-141v881h-220z" />
<glyph unicode="&#x443;" horiz-adv-x="626" d="M10 1006h146l141 -631l25 -139l24 139l143 631h144l-305 -1233q-25 -98 -62 -140q-52 -65 -176 -65h-35v131h29q54 0 76 25.5t41 101.5l51 207z" />
<glyph unicode="&#x444;" horiz-adv-x="1075" d="M74 436v146q0 402 393 434v442h141v-442q393 -31 393 -426v-166q0 -400 -393 -434v-443h-141v441q-190 15 -291.5 126t-101.5 322zM215 426q0 -130 65 -210t187 -99v778q-124 -13 -188 -82.5t-64 -226.5v-160zM608 117q122 19 187 99t65 210v160q0 152 -63.5 223 t-188.5 84v-776z" />
<glyph unicode="&#x445;" horiz-adv-x="659" d="M31 0l225 514l-215 492h143l121 -289l25 -82l26 82l117 289h145l-217 -492l228 -514h-146l-127 311l-26 86l-25 -86l-131 -311h-143z" />
<glyph unicode="&#x446;" horiz-adv-x="802" d="M109 0v1006h143v-881h276v881h142v-881h121v-399h-132v274h-550z" />
<glyph unicode="&#x447;" horiz-adv-x="706" d="M74 662v344h141v-326q0 -95 32 -133.5t111 -38.5q26 0 57 6.5t40 13.5v478h143v-1006h-143v408q-15 -10 -50.5 -19.5t-70.5 -9.5q-133 0 -196.5 70.5t-63.5 212.5z" />
<glyph unicode="&#x448;" horiz-adv-x="1097" d="M109 0v1006h143v-881h225v881h141v-881h228v881h141v-1006h-878z" />
<glyph unicode="&#x449;" horiz-adv-x="1120" d="M109 0v1006h143v-881h225v881h141v-881h228v881h141v-881h121v-399h-131v274h-868z" />
<glyph unicode="&#x44a;" horiz-adv-x="819" d="M16 881v125h344v-396h136q268 0 268 -284v-41q0 -285 -268 -285h-277v881h-203zM362 125h115q80 0 112 36.5t32 131.5v26q0 94 -33 132t-111 38h-115v-364z" />
<glyph unicode="&#x44b;" horiz-adv-x="1003" d="M109 0v1006h143v-396h133q268 0 268 -284v-41q0 -285 -268 -285h-276zM252 125h115q80 0 112.5 37t32.5 131v26q0 94 -33.5 132t-111.5 38h-115v-364zM752 0v1006h141v-1006h-141z" />
<glyph unicode="&#x44c;" horiz-adv-x="712" d="M109 0v1006h143v-396h133q268 0 268 -284v-41q0 -285 -268 -285h-276zM252 125h115q80 0 112.5 37t32.5 131v26q0 94 -33.5 132t-111.5 38h-115v-364z" />
<glyph unicode="&#x44d;" horiz-adv-x="696" d="M57 270h142q6 -159 139 -159q68 0 103.5 51t35.5 176v115h-246v112h246v101q0 122 -35.5 172.5t-103.5 50.5q-70 0 -101 -37t-36 -117h-142q6 141 78.5 211t198.5 70q127 0 204.5 -87t77.5 -261v-332q0 -176 -77 -262t-205 -86q-130 0 -201.5 77.5t-77.5 204.5z" />
<glyph unicode="&#x44e;" horiz-adv-x="1042" d="M109 0v1006h143v-435h133v101q0 173 77.5 258.5t213.5 85.5q134 0 211.5 -85.5t77.5 -258.5v-340q0 -175 -77 -259.5t-212 -84.5q-136 0 -213.5 84.5t-77.5 259.5v112h-133v-444h-143zM528 340q0 -125 36 -175t112 -50q75 0 111 50t36 175v324q0 124 -36.5 173.5 t-110.5 49.5q-76 0 -112 -49.5t-36 -173.5v-324z" />
<glyph unicode="&#x44f;" horiz-adv-x="745" d="M53 0l180 428q-73 28 -112 93.5t-39 162.5v64q0 119 65.5 188.5t188.5 69.5h299v-1006h-143v408h-117l-172 -408h-150zM221 682q0 -84 34 -121t101 -37h138v363h-138q-71 0 -103 -38t-32 -124v-43z" />
<glyph unicode="&#x451;" horiz-adv-x="727" d="M78 344v315q0 181 77 268t212 87q282 0 282 -346v-209h-432v-107q0 -133 38.5 -186t115.5 -53q70 0 102 35.5t35 119.5h137q-6 -134 -74.5 -207t-199.5 -73q-137 0 -215 86.5t-78 269.5zM141 1264q0 38 27 65t65 27q37 0 65 -26.5t28 -61.5q0 -40 -27.5 -68.5 t-65.5 -28.5t-65 28t-27 65zM217 571h293v95q0 126 -33.5 175.5t-109.5 49.5t-113 -51.5t-37 -182.5v-86zM424 1264q0 38 26.5 65t63.5 27t65.5 -26.5t28.5 -61.5q0 -40 -27 -68.5t-65 -28.5t-65 28t-27 65z" />
<glyph unicode="&#x452;" horiz-adv-x="774" d="M35 987v111h74v360h143v-360h315v-111h-315v-256q63 105 190 105q114 0 171 -70t57 -191v-573q0 -115 -55.5 -180.5t-168.5 -65.5h-49v129h33q54 0 76 29.5t22 93.5v535q0 86 -30 122.5t-97 36.5q-149 0 -149 -161v-541h-143v987h-74z" />
<glyph unicode="&#x453;" horiz-adv-x="602" d="M109 0v1006h477v-125h-334v-881h-143zM205 1122l155 279h152l-199 -279h-108z" />
<glyph unicode="&#x454;" horiz-adv-x="696" d="M78 336v332q0 174 77.5 261t204.5 87q126 0 198.5 -70t78.5 -211h-141q-5 80 -36.5 117t-101.5 37q-68 0 -103.5 -50.5t-35.5 -172.5v-101h246v-112h-246v-115q0 -125 35.5 -176t103.5 -51q134 0 140 159h141q-6 -127 -77.5 -204.5t-201.5 -77.5q-128 0 -205 86t-77 262z " />
<glyph unicode="&#x455;" horiz-adv-x="673" d="M68 262h139q5 -80 34 -114.5t93 -34.5q71 0 100 41t29 129q0 75 -18.5 105t-79.5 50l-91 29q-107 35 -149.5 94t-42.5 182q0 137 70 205t186 68q114 0 182.5 -61.5t71.5 -190.5h-135q-4 72 -32.5 100.5t-86.5 28.5q-67 0 -94 -34t-27 -114q0 -74 19.5 -105t76.5 -48 l88 -27q106 -31 151.5 -89t45.5 -189q0 -299 -264 -299q-250 0 -266 274z" />
<glyph unicode="&#x456;" horiz-adv-x="391" d="M98 1370q0 41 29 69.5t68 28.5q40 0 69 -28t29 -66q0 -41 -28 -70.5t-68 -29.5t-69.5 29t-29.5 67zM123 0v1006h145v-1006h-145z" />
<glyph unicode="&#x457;" horiz-adv-x="391" d="M-37 1374q0 38 27.5 65t64.5 27t64.5 -26.5t27.5 -61.5q0 -40 -26.5 -68t-63.5 -28q-38 0 -66 27.5t-28 64.5zM123 0v1006h145v-1006h-145zM246 1374q0 38 26.5 65t63.5 27t65.5 -26.5t28.5 -61.5q0 -40 -27 -68t-65 -28t-65 27.5t-27 64.5z" />
<glyph unicode="&#x458;" horiz-adv-x="393" d="M2 -324h31q55 0 77.5 29.5t22.5 93.5v1207h143v-1213q0 -114 -56 -179t-169 -65h-49v127zM104 1370q0 41 28.5 69.5t68.5 28.5q39 0 68.5 -28t29.5 -66q0 -41 -28 -70.5t-68 -29.5q-41 0 -70 28.5t-29 67.5z" />
<glyph unicode="&#x459;" horiz-adv-x="1136" d="M0 0v123h18q78 0 109.5 64t34.5 200l14 619h498v-414h135q268 0 268 -285v-22q0 -285 -268 -285h-277v887h-223l-12 -529q-1 -57 -7.5 -104.5t-23.5 -96t-43.5 -82t-71.5 -54.5t-104 -21h-47zM674 123h117q80 0 111.5 36.5t31.5 131.5v10q0 94 -32.5 131t-110.5 37h-117 v-346z" />
<glyph unicode="&#x45a;" horiz-adv-x="1126" d="M109 0v1006h143v-414h276v414h142v-414h135q268 0 268 -285v-22q0 -285 -268 -285h-277v469h-276v-469h-143zM670 123h116q80 0 112 36.5t32 131.5v10q0 94 -33 131t-111 37h-116v-346z" />
<glyph unicode="&#x45b;" horiz-adv-x="774" d="M35 987v111h74v360h143v-360h315v-111h-315v-256q63 105 190 105q114 0 171 -70t57 -191v-575h-142v543q0 86 -30 122.5t-97 36.5q-149 0 -149 -161v-541h-143v987h-74z" />
<glyph unicode="&#x45c;" horiz-adv-x="735" d="M109 0v1006h141v-457l276 457h148l-250 -418l287 -588h-154l-225 453l-82 -136v-317h-141zM246 1122l157 279h152l-199 -279h-110z" />
<glyph unicode="&#x45e;" horiz-adv-x="626" d="M10 1006h146l141 -631l25 -139l26 139l141 631h146l-307 -1233q-25 -97 -60 -140q-57 -65 -178 -65h-35v133h29q54 0 76 24.5t41 100.5l51 207zM68 1384h112q6 -59 41 -94t98 -35q60 0 95 36.5t41 92.5h112q-12 -114 -80 -174.5t-172 -60.5q-103 0 -168.5 58.5 t-78.5 176.5z" />
<glyph unicode="&#x45f;" horiz-adv-x="780" d="M109 0v1006h143v-881h276v881h142v-1006h-213v-274h-131v274h-217z" />
<glyph unicode="&#x490;" horiz-adv-x="782" d="M123 0v1458h469v330h141v-467h-459v-1321h-151z" />
<glyph unicode="&#x491;" horiz-adv-x="602" d="M109 0v1006h344v274h133v-399h-334v-881h-143z" />
<glyph unicode="&#x2000;" horiz-adv-x="897" />
<glyph unicode="&#x2001;" horiz-adv-x="1794" />
<glyph unicode="&#x2002;" horiz-adv-x="897" />
<glyph unicode="&#x2003;" horiz-adv-x="1794" />
<glyph unicode="&#x2004;" horiz-adv-x="598" />
<glyph unicode="&#x2005;" horiz-adv-x="448" />
<glyph unicode="&#x2006;" horiz-adv-x="299" />
<glyph unicode="&#x2007;" horiz-adv-x="299" />
<glyph unicode="&#x2008;" horiz-adv-x="224" />
<glyph unicode="&#x2009;" horiz-adv-x="358" />
<glyph unicode="&#x200a;" horiz-adv-x="99" />
<glyph unicode="&#x2010;" horiz-adv-x="557" d="M96 487v129h365v-129h-365z" />
<glyph unicode="&#x2011;" horiz-adv-x="557" d="M96 487v129h365v-129h-365z" />
<glyph unicode="&#x2012;" horiz-adv-x="557" d="M96 487v129h365v-129h-365z" />
<glyph unicode="&#x2013;" horiz-adv-x="1024" d="M0 485v131h1024v-131h-1024z" />
<glyph unicode="&#x2014;" horiz-adv-x="2048" d="M0 485v131h2048v-131h-2048z" />
<glyph unicode="&#x2018;" horiz-adv-x="434" d="M96 1104l140 354h110l-84 -354h-166z" />
<glyph unicode="&#x2019;" horiz-adv-x="434" d="M59 1104l86 354h166l-139 -354h-113z" />
<glyph unicode="&#x201a;" horiz-adv-x="434" d="M96 -180l84 354h166l-137 -354h-113z" />
<glyph unicode="&#x201c;" horiz-adv-x="729" d="M94 1104l137 354h113l-84 -354h-166zM383 1104l139 354h113l-84 -354h-168z" />
<glyph unicode="&#x201d;" horiz-adv-x="729" d="M57 1104l86 354h166l-139 -354h-113zM348 1104l84 354h166l-137 -354h-113z" />
<glyph unicode="&#x201e;" horiz-adv-x="729" d="M94 -180l84 354h166l-137 -354h-113zM385 -180l84 354h166l-139 -354h-111z" />
<glyph unicode="&#x2026;" horiz-adv-x="1251" d="M113 94q0 43 31.5 75t74.5 32q44 0 75.5 -31.5t31.5 -73.5q0 -46 -31 -77t-76 -31q-43 0 -74.5 31t-31.5 75zM520 94q0 43 31.5 75t75.5 32q43 0 74.5 -31.5t31.5 -73.5q0 -45 -31.5 -76.5t-74.5 -31.5q-44 0 -75.5 31t-31.5 75zM924 94q0 43 31 75t75 32q43 0 75 -32 t32 -73q0 -45 -32 -76.5t-75 -31.5q-44 0 -75 31t-31 75z" />
<glyph unicode="&#x202f;" horiz-adv-x="358" />
<glyph unicode="&#x2039;" horiz-adv-x="528" d="M55 549l391 391v-182l-208 -209l208 -211v-182z" />
<glyph unicode="&#x203a;" horiz-adv-x="528" d="M82 156v182l211 211l-211 209v182l391 -391z" />
<glyph unicode="&#x205f;" horiz-adv-x="448" />
<glyph unicode="&#x2122;" horiz-adv-x="1705" d="M74 1350v108h604v-108h-244v-766h-119v766h-241zM831 584v874h121l265 -528l266 528h119v-874h-119v628l-207 -411h-117l-207 411v-628h-121z" />
<glyph unicode="&#x25fc;" horiz-adv-x="1003" d="M0 0v1004h1004v-1004h-1004z" />
</font>
</defs>
</svg>
